<svg width="41" height="20" viewBox="0 0 41 20" fill="none" xmlns="http://www.w3.org/2000/svg">
<g id="Discover">
<path id="Stripe" d="M15.5293 19.6767L40.6764 12.0664V15.7061C40.6764 17.899 38.8987 19.6767 36.7058 19.6767H15.5293Z" fill="#FD6020"/>
<path id="DISC-VER" fill-rule="evenodd" clip-rule="evenodd" d="M35.9033 1.05881C37.2868 1.05881 38.0477 1.69879 38.0477 2.90765C38.1169 3.83207 37.4943 4.61427 36.6642 4.75649L38.5319 7.38753H37.0793L35.4883 4.8276H35.3499V7.38753H34.174V1.05881H35.9033ZM35.3502 3.97451H35.696C36.457 3.97451 36.8028 3.61896 36.8028 2.97898C36.8028 2.4101 36.457 2.05456 35.696 2.05456H35.3502V3.97451ZM30.0935 7.38753H33.4139V6.32089H31.2695V4.61427H33.3447V3.54763H31.2695V2.12545H33.4139V1.05881H30.0935V7.38753ZM26.6338 5.32536L25.0428 1.05881H23.7977L26.3571 7.52975H26.9797L29.5391 1.05881H28.294L26.6338 5.32536ZM12.5917 4.25841C12.5917 6.03614 13.9751 7.52943 15.7045 7.52943C16.2579 7.52943 16.7421 7.38722 17.2263 7.17389V5.7517C16.8804 6.17836 16.3962 6.4628 15.8428 6.4628C14.736 6.4628 13.8368 5.60949 13.8368 4.47174V4.32952C13.7676 3.19177 14.6669 2.19625 15.7737 2.12514C16.327 2.12514 16.8804 2.40957 17.2263 2.83623V1.41404C16.8113 1.12961 16.2579 1.0585 15.7737 1.0585C13.9751 0.91628 12.5917 2.40957 12.5917 4.25841ZM10.4469 3.47653C9.75519 3.1921 9.54767 3.04988 9.54767 2.69433C9.61684 2.26768 9.96271 1.91213 10.3778 1.98324C10.7236 1.98324 11.0695 2.19657 11.3462 2.481L11.9688 1.62769C11.4845 1.20104 10.862 0.916601 10.2394 0.916601C9.27097 0.845492 8.44088 1.62769 8.37171 2.62322V2.69433C8.37171 3.54764 8.71758 4.04541 9.82436 4.40095C10.1011 4.47206 10.3778 4.61428 10.6544 4.7565C10.862 4.89872 11.0003 5.11204 11.0003 5.39648C11.0003 5.89425 10.5853 6.3209 10.1702 6.3209H10.1011C9.54767 6.3209 9.06345 5.96535 8.85593 5.46759L8.09501 6.24979C8.51006 7.03199 9.34014 7.45865 10.1702 7.45865C11.277 7.52976 12.1763 6.67645 12.2454 5.5387V5.32537C12.1763 4.47206 11.8304 4.04541 10.4469 3.47653ZM6.43543 7.38753H7.61139V1.05881H6.43543V7.38753ZM0.970703 1.05881H2.70005H3.04592C4.70609 1.12992 6.0204 2.5521 5.95122 4.25872C5.95122 5.18314 5.53618 6.03645 4.84444 6.67644C4.22188 7.1742 3.46096 7.45864 2.70005 7.38753H0.970703V1.05881ZM2.49264 6.3205C3.04603 6.39161 3.6686 6.17828 4.08364 5.82273C4.49868 5.39608 4.70621 4.8272 4.70621 4.18722C4.70621 3.61835 4.49868 3.04947 4.08364 2.62282C3.6686 2.26727 3.04603 2.05394 2.49264 2.12505H2.14677V6.3205H2.49264Z" fill="white"/>
<path id="O" fill-rule="evenodd" clip-rule="evenodd" d="M20.7548 0.912109C19.0254 0.912109 17.5728 2.33429 17.5728 4.18313C17.5728 5.96086 18.9562 7.45416 20.7548 7.52527C22.5533 7.59637 23.9368 6.10308 24.0059 4.25424C23.9368 2.4054 22.5533 0.912109 20.7548 0.912109V0.912109Z" fill="#FD6020"/>
</g>
</svg>
