<svg width="40" height="40" viewBox="0 0 40 40" fill="none" xmlns="http://www.w3.org/2000/svg">
<g id="plant 1" clip-path="url(#clip0_1903_14806)">
<g id="Group">
<g id="Group_2">
<path id="Vector" d="M38.1593 6.09396C33.4342 6.09396 26.7587 6.48932 23.3473 9.89887C21.8704 11.3758 21.1328 13.7836 21.3243 16.5088C21.3492 16.8687 21.5885 17.1754 21.9324 17.2889C22.2746 17.4006 22.6505 17.296 22.8846 17.0212C24.7817 14.789 27.1399 13 29.8987 11.7039C30.1328 11.5922 30.4094 11.5833 30.6611 11.672C30.8828 11.7517 31.0565 11.9024 31.1469 12.0957C31.3348 12.4929 31.2745 13.016 30.6505 13.3102C30.615 13.328 30.5831 13.3511 30.5477 13.367C30.5353 13.3723 30.5211 13.3706 30.5104 13.3759C23.7126 16.5709 20.3705 22.1454 18.8527 27.8776C17.7463 20.7003 15.4095 16.4751 13.202 13.8812C11.6046 11.8103 10.0336 10.7128 9.12585 10.0923C8.95738 9.97699 8.44858 9.6295 8.23756 9.41849C7.89182 9.07274 7.89182 8.51066 8.23756 8.16492C8.5833 7.82092 9.14713 7.82092 9.53185 8.2039C9.62585 8.28726 9.77653 8.39364 9.96802 8.5213L10.1258 8.62768C11.4095 9.50708 13.7996 11.14 15.9201 14.656C16.1098 14.9698 16.4769 15.1383 16.8332 15.0709C17.1949 15.007 17.4786 14.7287 17.5496 14.3688C18.0123 12.0053 17.8049 8.4982 15.6968 6.39008C12.2855 2.98227 5.61 2.58691 0.886629 2.58691C0.397188 2.58683 0 2.98402 0 3.47338C0 8.1985 0.39536 14.874 3.80491 18.2854C5.22686 19.7073 7.42016 20.3456 9.59917 20.3456C11.3775 20.3456 13.1204 19.9005 14.4555 19.1293C16.2764 22.9023 17.7303 28.5388 17.7303 37.1611C17.7303 37.6504 18.1275 38.0476 18.6169 38.0476C19.1062 38.0476 19.5034 37.6504 19.5034 37.1611C19.5034 32.3508 20.3279 26.5778 23.3935 21.8261C24.6222 23.0264 26.7374 23.7871 29.0813 23.858C29.1983 23.8615 29.3136 23.8633 29.4288 23.8633C31.81 23.8633 33.9146 23.1169 35.239 21.7906C38.6503 18.3793 39.0439 11.7038 39.0439 6.97859C39.0459 6.48932 38.6504 6.09396 38.1593 6.09396Z" fill="#00B307"/>
</g>
</g>
</g>
<defs>
<clipPath id="clip0_1903_14806">
<rect width="39.044" height="39.044" fill="white" transform="translate(0 0.79541)"/>
</clipPath>
</defs>
</svg>
